<svg width="0" height="0" class="hidden">
  <symbol fill="currentColor" xmlns="http://www.w3.org/2000/svg" viewBox="0 0 24 24" id="phone">
    <path d="M23.9481 18.5956C23.8802 18.3911 23.4483 18.0898 22.6528 17.6924C22.4372 17.5671 22.1301 17.3969 21.7328 17.181C21.335 16.965 20.974 16.7661 20.6504 16.5842C20.3261 16.4024 20.0222 16.2263 19.7384 16.0561C19.693 16.022 19.551 15.9227 19.3123 15.7576C19.0735 15.5929 18.872 15.4707 18.707 15.391C18.5422 15.3118 18.3802 15.2719 18.2211 15.2719C17.9939 15.2719 17.7101 15.4339 17.3693 15.7576C17.0285 16.0816 16.7159 16.4336 16.432 16.8147C16.148 17.1955 15.8468 17.5475 15.5289 17.8714C15.2106 18.1954 14.949 18.3572 14.7447 18.3572C14.6422 18.3572 14.5143 18.3286 14.361 18.2722C14.2078 18.2154 14.0913 18.1668 14.0113 18.1276C13.932 18.0875 13.7959 18.0082 13.6026 17.8885C13.409 17.7692 13.3013 17.7038 13.2786 17.6924C11.7218 16.8286 10.3867 15.8399 9.273 14.7266C8.15962 13.6127 7.17084 12.2777 6.30725 10.7208C6.29591 10.6981 6.23042 10.5901 6.11119 10.397C5.99179 10.2038 5.91221 10.0676 5.87245 9.98781C5.83268 9.90835 5.78439 9.79181 5.72767 9.63844C5.67095 9.48506 5.64248 9.3573 5.64248 9.25491C5.64248 9.05049 5.80445 8.789 6.12833 8.47079C6.45215 8.15276 6.80451 7.8515 7.18505 7.56762C7.56589 7.28374 7.91789 6.97114 8.24183 6.63036C8.56565 6.2894 8.72756 6.00546 8.72756 5.77824C8.72756 5.61925 8.6878 5.45716 8.60834 5.29244C8.52882 5.12737 8.40667 4.92594 8.24183 4.68719C8.07693 4.44856 7.97753 4.30665 7.94338 4.26098C7.77311 3.97709 7.59717 3.67315 7.41514 3.34927C7.23311 3.02545 7.03442 2.66449 6.81842 2.26682C6.6026 1.86932 6.43227 1.5624 6.30713 1.34651C5.90964 0.551227 5.60856 0.119224 5.40397 0.0512838C5.32438 0.0171941 5.20498 0 5.04605 0C4.73907 0 4.33859 0.0567167 3.84432 0.170508C3.34987 0.284121 2.96079 0.403286 2.67667 0.52848C2.10849 0.766989 1.50628 1.46013 0.869857 2.60766C0.290332 3.6756 0.000598907 4.73262 0.000598907 5.77794C0.000598907 6.08451 0.0204796 6.38278 0.060241 6.67281C0.100002 6.96254 0.171047 7.28929 0.273436 7.65299C0.375645 8.01658 0.458093 8.28667 0.520422 8.46255C0.58281 8.63855 0.699289 8.95384 0.869797 9.40852C1.04007 9.86309 1.14245 10.1414 1.17654 10.2436C1.57422 11.3573 2.0458 12.3515 2.59118 13.2266C3.4885 14.681 4.71304 16.1841 6.26409 17.7353C7.8152 19.2864 9.31802 20.5108 10.7726 21.4085C11.6475 21.9538 12.6421 22.4254 13.7556 22.8233C13.8579 22.8573 14.1362 22.9594 14.5906 23.1303C15.0451 23.3007 15.3605 23.4171 15.5365 23.4796C15.7126 23.5422 15.9828 23.6247 16.346 23.7271C16.7101 23.8295 17.0366 23.9005 17.3263 23.9406C17.6162 23.9798 17.9145 24.0001 18.2212 24.0001C19.2664 24.0001 20.3235 23.7101 21.3916 23.1307C22.539 22.4945 23.232 21.8922 23.4706 21.3236C23.5961 21.0397 23.715 20.6506 23.8286 20.1561C23.9426 19.6619 23.9992 19.2615 23.9992 18.9545C23.9995 18.795 23.9824 18.6759 23.9481 18.5956Z"></path>
  </symbol>
  <symbol fill="currentColor" xmlns="http://www.w3.org/2000/svg" viewBox="0 0 44 44" id="board">
    <path d="M43.6224 0.377541C43.352 0.106917 42.9749 -0.0297695 42.5941 0.00545453C42.4351 0.0198878 38.6411 0.38072 33.4378 2.12723C16.5036 7.34263 5.29627 23.7628 0.084737 35.6415C-0.243304 36.4259 0.419479 37.4759 1.41151 37.3891L7.16777 36.8291L6.60783 42.5849C6.54648 43.4123 7.34974 44.2837 8.35552 43.9116C29.0348 34.4891 41.6483 20.0671 43.9947 1.40583C44.0294 1.0248 43.8931 0.647993 43.6224 0.377541ZM26.9597 28.7069C24.6747 30.7864 22.4223 32.574 20.3403 34.0798V12.1341C22.5228 10.3454 24.7848 8.89566 26.9597 7.72519V28.7069ZM14.3821 37.9794C12.3358 39.1817 10.6086 40.0592 9.38698 40.6383L9.88497 35.5196C9.95886 34.8536 9.34273 34.0111 8.47744 34.1122L3.36042 34.6099C5.08912 30.9423 9.74492 22.4028 17.7627 14.4555V35.8653C16.5271 36.6844 15.3872 37.3889 14.3821 37.9794ZM39.405 9.81278C37.8914 14.2983 34.9521 20.7742 29.5372 26.2415V6.44123C33.0645 4.73768 38.4534 3.21067 41.194 2.80577C40.9314 4.3448 40.4041 6.85172 39.405 9.81278Z"></path>
  </symbol>
  <symbol fill="currentColor" xmlns="http://www.w3.org/2000/svg" viewBox="0 0 44 31" id="car">
    <path d="M33.2311 19.4117C30.1728 19.4117 27.6849 21.8997 27.6849 24.958C27.6849 28.0162 30.1728 30.5042 33.2311 30.5042C36.2899 30.5042 38.7773 28.0162 38.7773 24.958C38.7773 21.8997 36.2893 19.4117 33.2311 19.4117ZM33.2311 27.7311C31.7017 27.7311 30.458 26.4873 30.458 24.958C30.458 23.4286 31.7017 22.1849 33.2311 22.1849C34.7604 22.1849 36.0042 23.4286 36.0042 24.958C36.0042 26.4874 34.7604 27.7311 33.2311 27.7311Z"></path>
    <path d="M14.2815 19.4117C11.2233 19.4117 8.73529 21.8997 8.73529 24.958C8.73529 28.0162 11.2233 30.5042 14.2815 30.5042C17.3398 30.5042 19.8278 28.0162 19.8278 24.958C19.8278 21.8997 17.3398 19.4117 14.2815 19.4117ZM14.2815 27.7311C12.7522 27.7311 11.5084 26.4873 11.5084 24.958C11.5084 23.4286 12.7522 22.1849 14.2815 22.1849C15.8104 22.1849 17.0546 23.4286 17.0546 24.958C17.0546 26.4874 15.8109 27.7311 14.2815 27.7311Z"></path>
    <path d="M36.966 3.53667C36.7303 3.06848 36.251 2.77312 35.7269 2.77312H28.4243V5.54624H34.8718L38.6474 13.0558L41.1256 11.8097L36.966 3.53667Z"></path>
    <path d="M29.0715 23.6177H18.5799V26.3908H29.0715V23.6177Z" ></path>
    <path d="M10.1218 23.6177H5.31515C4.54928 23.6177 3.92864 24.2384 3.92864 25.0042C3.92864 25.7701 4.54936 26.3907 5.31515 26.3907H10.1219C10.8878 26.3907 11.5084 25.77 11.5084 25.0042C11.5084 24.2383 10.8877 23.6177 10.1218 23.6177Z" ></path>
    <path d="M43.7088 15.1412L40.9815 11.6285C40.7195 11.2902 40.3151 11.0924 39.8866 11.0924H29.8109V1.38652C29.8109 0.62064 29.1902 0 28.4244 0H5.31515C4.54928 0 3.92864 0.620726 3.92864 1.38652C3.92864 2.1523 4.54936 2.77303 5.31515 2.77303H27.0378V12.4789C27.0378 13.2448 27.6586 13.8654 28.4243 13.8654H39.2076L41.2269 16.4666V23.6175H37.3907C36.6249 23.6175 36.0042 24.2382 36.0042 25.004C36.0042 25.7699 36.6249 26.3906 37.3907 26.3906H42.6134C43.3793 26.3906 43.9999 25.7698 44 25.004V15.9916C44 15.6838 43.8974 15.3843 43.7088 15.1412Z" ></path>
    <path d="M10.0294 16.5925H3.65123C2.88535 16.5925 2.26471 17.2132 2.26471 17.979C2.26471 18.7449 2.88544 19.3655 3.65123 19.3655H10.0293C10.7952 19.3655 11.4159 18.7448 11.4159 17.979C11.4159 17.2132 10.7952 16.5925 10.0294 16.5925Z" ></path>
    <path d="M13.2185 11.1386H1.38652C0.620727 11.1386 0 11.7594 0 12.5252C0 13.2911 0.620727 13.9117 1.38652 13.9117H13.2185C13.9844 13.9117 14.605 13.291 14.605 12.5252C14.605 11.7594 13.9844 11.1386 13.2185 11.1386Z" ></path>
    <path d="M15.4832 5.68486H3.65123C2.88535 5.68486 2.26471 6.30559 2.26471 7.07138C2.26471 7.83725 2.88544 8.45789 3.65123 8.45789H15.4832C16.2491 8.45789 16.8697 7.83717 16.8697 7.07138C16.8698 6.30559 16.2491 5.68486 15.4832 5.68486Z"></path>
  </symbol>
  <symbol fill="currentColor" xmlns="http://www.w3.org/2000/svg" viewBox="0 0 44 44" id="material">
    <path d="M42.7109 15.5547H33.4859C33.4867 15.5466 33.4881 15.5386 33.489 15.5305C34.5624 14.6069 35.4204 13.5102 36.0436 12.264C36.2435 11.8644 36.2221 11.3899 35.9873 11.0099C35.7523 10.6298 35.3374 10.3984 34.8906 10.3984H32.9008C32.4691 9.17708 31.8389 8.04924 31.0187 7.03088C31.1239 5.62022 30.955 4.23997 30.5149 2.9198C30.3737 2.49596 30.023 2.1755 29.5882 2.07289C29.1533 1.97019 28.6965 2.10013 28.3805 2.41595L26.9706 3.82584C25.8057 3.26897 24.5654 2.91748 23.2672 2.77663C22.2944 1.63065 21.1731 0.723584 19.9983 0.136115C19.5987 -0.0636892 19.1243 -0.0423767 18.7441 0.19249C18.3642 0.427358 18.1328 0.842264 18.1328 1.28905V3.36479C16.9116 3.79645 15.7835 4.4268 14.7653 5.2469C13.3548 5.1418 11.9743 5.31067 10.6544 5.75076C10.2305 5.89204 9.91006 6.24275 9.80745 6.67751C9.70484 7.11226 9.8346 7.56928 10.1505 7.8851L11.5601 9.29482C11.0029 10.4606 10.6513 11.7017 10.5107 13.0009C9.647 13.7441 8.92306 14.5995 8.3484 15.5548H1.28906C0.577156 15.5548 0 16.1319 0 16.8438V22.0001C0 22.712 0.577156 23.2891 1.28906 23.2891H2.66406V42.711C2.66406 43.4229 3.24122 44.0001 3.95312 44.0001H9.10938C9.82128 44.0001 10.3984 43.4229 10.3984 42.711V38.3416L22 33.701L33.6016 38.3416V42.7109C33.6016 43.4228 34.1787 44 34.8906 44H40.0469C40.7588 44 41.3359 43.4228 41.3359 42.7109V23.2891H42.7109C43.4228 23.2891 44 22.7119 44 22V16.8437C44 16.1318 43.4228 15.5547 42.7109 15.5547ZM12.5384 14.6726C12.8324 14.445 13.0138 14.1015 13.0359 13.7302C13.122 12.2914 13.5325 10.9395 14.2563 9.71222C14.5549 9.20587 14.473 8.5616 14.0574 8.14592L13.7103 7.79882C14.1413 7.78558 14.5778 7.80681 15.0183 7.86258C15.3871 7.90933 15.7584 7.79452 16.0365 7.54745C17.1136 6.59062 18.3613 5.92383 19.745 5.56547C20.3137 5.41835 20.7109 4.90522 20.7109 4.31775V3.80771C21.0177 4.10952 21.3132 4.44287 21.5929 4.80415C21.8206 5.09815 22.1641 5.27948 22.5352 5.30165C23.974 5.38758 25.3259 5.79819 26.5533 6.52196C27.0597 6.82051 27.7039 6.73869 28.1195 6.3231L28.4668 5.97591C28.48 6.40689 28.4588 6.84354 28.403 7.28397C28.3563 7.6529 28.4711 8.02406 28.7182 8.30215C29.675 9.3793 30.3418 10.627 30.7001 12.0107C30.8474 12.5794 31.3606 12.9766 31.948 12.9766H32.4345C32.1384 13.2916 31.8137 13.586 31.4617 13.8586C31.1677 14.0863 30.9864 14.4298 30.9642 14.8009C30.9491 15.0536 30.923 15.3052 30.8872 15.5548H25.6455C25.7886 15.1513 25.8672 14.7176 25.8672 14.2657C25.8672 12.1333 24.1324 10.3985 22 10.3985C19.8676 10.3985 18.1328 12.1333 18.1328 14.2657C18.1328 14.7176 18.2114 15.1513 18.3545 15.5548H11.5662C11.8624 15.2397 12.1865 14.9451 12.5384 14.6726ZM23.2891 14.2656C23.2891 14.9764 22.7108 15.5547 22 15.5547C21.2892 15.5547 20.7109 14.9764 20.7109 14.2656C20.7109 13.5548 21.2892 12.9766 22 12.9766C22.7108 12.9766 23.2891 13.5548 23.2891 14.2656ZM7.82031 41.4219H5.24219V23.2891H7.82031C7.82031 23.2803 7.8204 36.0167 7.82031 41.4219ZM10.3984 35.5648V29.0603L18.5291 32.3125L10.3984 35.5648ZM33.6016 35.5648L25.4709 32.3125L33.6016 29.0603V35.5648ZM33.6016 26.2835L22 30.9242L10.3984 26.2835V23.2891H33.6016V26.2835ZM38.7578 41.4219H36.1797C36.1797 39.1353 36.1797 26.0464 36.1797 23.2891H38.7578V41.4219ZM41.4219 20.7109H2.57812V18.1328H41.4219V20.7109Z"></path>
  </symbol>
</svg>